<svg xmlns="http://www.w3.org/2000/svg" xmlns:xlink="http://www.w3.org/1999/xlink" width="24" height="24" viewBox="0 0 24 24">
  <defs>
    <clipPath id="clip-path">
      <rect id="Rectangle_65" data-name="Rectangle 65" width="24" height="24" transform="translate(130 2891)" fill="#fff"/>
    </clipPath>
  </defs>
  <g id="email" transform="translate(-130 -2891)" clip-path="url(#clip-path)">
    <g id="at" transform="translate(130 2891)">
      <g id="Group_59" data-name="Group 59" transform="translate(0)">
        <path id="Path_137" data-name="Path 137" d="M10.628.077a12,12,0,0,0,2.3,23.888A12.357,12.357,0,0,0,20.372,20.6l.176-.164a.5.5,0,0,0,.025-.707L19.89,19a.5.5,0,0,0-.707-.025l-.366.341A10,10,0,1,1,12.3,2,10.176,10.176,0,0,1,22,12.268V13a2,2,0,0,1-2.2,1.99A2.06,2.06,0,0,1,18,12.911V8.5a.5.5,0,0,0-.5-.5h-1a.5.5,0,0,0-.451.291,5.5,5.5,0,1,0,.532,6.746,3.983,3.983,0,0,0,3.693,1.954A4.1,4.1,0,0,0,24,12.859V12A12.014,12.014,0,0,0,10.628.077ZM12,15.5A3.5,3.5,0,1,1,15.5,12,3.5,3.5,0,0,1,12,15.5Z" transform="translate(0 0)" fill="#fff"/>
      </g>
    </g>
  </g>
</svg>
